<?xml version="1.0" standalone="no"?>
<!DOCTYPE svg PUBLIC "-//W3C//DTD SVG 20010904//EN"
 "http://www.w3.org/TR/2001/REC-SVG-20010904/DTD/svg10.dtd">
<svg version="1.0" xmlns="http://www.w3.org/2000/svg"
 width="800.000000pt" height="800.000000pt" viewBox="0 0 800.000000 800.000000"
 preserveAspectRatio="xMidYMid meet">
<metadata>
Created by potrace 1.14, written by Peter Selinger 2001-2017
</metadata>
<g transform="translate(0.000000,800.000000) scale(0.100000,-0.100000)"
fill="#000000" stroke="none">
<path d="M3810 7718 c0 -156 0 -679 -1 -1163 0 -830 -1 -879 -17 -857 -71 98
-152 189 -225 254 -222 195 -497 345 -776 422 -159 44 -218 51 -416 51 -182
-1 -195 -2 -310 -33 -820 -220 -1104 -1183 -665 -2251 63 -152 160 -345 244
-485 36 -60 66 -113 66 -118 0 -4 -383 -8 -852 -8 -468 0 -854 -2 -856 -5 -3
-3 -3 -7 0 -10 2 -3 392 -5 866 -5 l861 -1 24 -32 c250 -341 343 -452 557
-671 263 -269 428 -408 1082 -913 220 -170 335 -289 388 -400 l29 -62 1 -712
c0 -392 2 -714 5 -717 3 -3 7 -3 10 0 3 3 5 328 5 724 0 433 4 733 10 755 27
99 167 239 501 500 46 36 179 139 294 229 514 401 863 753 1161 1168 l91 127
1053 2 c579 2 1055 5 1058 8 3 3 3 7 0 10 -3 3 -474 5 -1047 5 -572 0 -1041 3
-1041 6 0 3 34 62 76 132 418 703 548 1436 352 1991 -101 287 -298 519 -551
647 -323 164 -748 165 -1151 3 -303 -122 -604 -338 -754 -541 -24 -32 -45 -58
-47 -58 -3 0 -5 388 -5 863 0 474 0 989 0 1145 0 181 -4 282 -10 282 -6 0 -10
-101 -10 -282z m-1141 -1358 c455 -93 951 -419 1101 -725 l40 -80 -3 -1010 -2
-1010 -1010 -2 c-555 -1 -1015 1 -1021 5 -17 11 -96 138 -174 280 -155 282
-268 591 -327 891 -25 125 -27 157 -27 386 -1 223 2 261 22 352 58 264 162
465 326 629 166 165 351 258 601 300 113 19 341 11 474 -16z m2796 10 c76 -14
237 -65 290 -92 131 -67 277 -189 370 -309 55 -71 138 -225 174 -325 129 -354
113 -816 -44 -1289 -81 -245 -206 -511 -342 -727 l-59 -93 -1010 0 -1009 0 -3
995 c-1 547 0 1019 3 1047 15 127 224 353 475 516 224 144 469 241 720 282 96
16 337 13 435 -5z m-1658 -3845 c2 -859 0 -978 -12 -960 -109 149 -234 257
-801 690 -324 248 -692 598 -939 895 -107 129 -255 331 -255 348 0 9 262 11
1003 9 l1002 -2 2 -980z m2023 978 c0 -13 -147 -210 -253 -340 -62 -75 -182
-209 -267 -297 -256 -263 -382 -373 -815 -711 -393 -306 -527 -420 -617 -525
l-48 -54 0 960 c0 529 3 964 7 967 8 9 1993 9 1993 0z"/>
<path d="M3596 3378 c-10 -14 -16 -44 -16 -78 0 -68 19 -100 60 -100 16 0 35
7 44 15 32 33 32 137 0 170 -23 23 -70 19 -88 -7z m74 -17 c14 -28 12 -104 -4
-126 -30 -41 -73 19 -61 85 11 59 44 80 65 41z"/>
<path d="M3596 7523 c-3 -10 -8 -35 -12 -55 -7 -41 2 -47 36 -26 25 16 54 1
58 -31 7 -46 -47 -70 -68 -31 -12 23 -30 27 -30 6 0 -44 75 -61 110 -26 43 43
12 114 -49 112 -24 0 -28 3 -24 19 4 15 14 19 44 19 28 0 39 4 39 15 0 23 -97
21 -104 -2z"/>
<path d="M680 7430 c0 -5 5 -10 10 -10 6 0 10 5 10 10 0 6 -4 10 -10 10 -5 0
-10 -4 -10 -10z"/>
<path d="M1460 7430 c0 -5 5 -10 10 -10 6 0 10 5 10 10 0 6 -4 10 -10 10 -5 0
-10 -4 -10 -10z"/>
<path d="M2240 7430 c0 -5 5 -10 10 -10 6 0 10 5 10 10 0 6 -4 10 -10 10 -5 0
-10 -4 -10 -10z"/>
<path d="M3020 7430 c0 -5 5 -10 10 -10 6 0 10 5 10 10 0 6 -4 10 -10 10 -5 0
-10 -4 -10 -10z"/>
<path d="M4580 7430 c0 -5 5 -10 10 -10 6 0 10 5 10 10 0 6 -4 10 -10 10 -5 0
-10 -4 -10 -10z"/>
<path d="M5360 7430 c0 -5 5 -10 10 -10 6 0 10 5 10 10 0 6 -4 10 -10 10 -5 0
-10 -4 -10 -10z"/>
<path d="M6140 7430 c0 -5 5 -10 10 -10 6 0 10 5 10 10 0 6 -4 10 -10 10 -5 0
-10 -4 -10 -10z"/>
<path d="M6920 7430 c0 -5 5 -10 10 -10 6 0 10 5 10 10 0 6 -4 10 -10 10 -5 0
-10 -4 -10 -10z"/>
<path d="M7700 7430 c0 -5 5 -10 10 -10 6 0 10 5 10 10 0 6 -4 10 -10 10 -5 0
-10 -4 -10 -10z"/>
<path d="M7700 6650 c0 -5 5 -10 10 -10 6 0 10 5 10 10 0 6 -4 10 -10 10 -5 0
-10 -4 -10 -10z"/>
<path d="M7700 5870 c0 -5 5 -10 10 -10 6 0 10 5 10 10 0 6 -4 10 -10 10 -5 0
-10 -4 -10 -10z"/>
<path d="M7700 5090 c0 -5 5 -10 10 -10 6 0 10 5 10 10 0 6 -4 10 -10 10 -5 0
-10 -4 -10 -10z"/>
<path d="M7700 4310 c0 -5 5 -10 10 -10 6 0 10 5 10 10 0 6 -4 10 -10 10 -5 0
-10 -4 -10 -10z"/>
<path d="M7665 3349 c-8 -58 -5 -65 23 -50 31 16 50 13 62 -9 26 -48 -28 -92
-61 -51 -31 38 -52 24 -23 -17 34 -50 117 -16 117 49 0 39 -24 62 -62 61 -24
0 -31 4 -31 18 0 15 9 19 42 22 65 5 61 28 -5 28 l-55 0 -7 -51z"/>
<path d="M7700 2750 c0 -5 5 -10 10 -10 6 0 10 5 10 10 0 6 -4 10 -10 10 -5 0
-10 -4 -10 -10z"/>
<path d="M7700 1970 c0 -5 5 -10 10 -10 6 0 10 5 10 10 0 6 -4 10 -10 10 -5 0
-10 -4 -10 -10z"/>
<path d="M7700 1190 c0 -5 5 -10 10 -10 6 0 10 5 10 10 0 6 -4 10 -10 10 -5 0
-10 -4 -10 -10z"/>
<path d="M7700 410 c0 -5 5 -10 10 -10 6 0 10 5 10 10 0 6 -4 10 -10 10 -5 0
-10 -4 -10 -10z"/>
</g>
</svg>
